<mxfile host="app.diagrams.net" agent="Mozilla/5.0 (Windows NT 10.0; Win64; x64) AppleWebKit/537.36 (KHTML, like Gecko) Chrome/133.0.0.0 Safari/537.36" version="26.0.16">
  <diagram name="Page-1" id="e7e014a7-5840-1c2e-5031-d8a46d1fe8dd">
    <mxGraphModel dx="1434" dy="746" grid="1" gridSize="10" guides="1" tooltips="1" connect="1" arrows="1" fold="1" page="1" pageScale="1" pageWidth="1169" pageHeight="826" background="none" math="0" shadow="0">
      <root>
        <mxCell id="0" />
        <mxCell id="1" parent="0" />
        <mxCell id="2" value="权益中台&#xa;equity-center" style="swimlane;whiteSpace=wrap;fillColor=#dae8fc;strokeColor=#6c8ebf;startSize=32;" parent="1" vertex="1">
          <mxGeometry x="164.5" y="128" width="280" height="570" as="geometry" />
        </mxCell>
        <mxCell id="7" value="卡券" style="" parent="2" vertex="1">
          <mxGeometry x="85" y="110" width="110" height="50" as="geometry" />
        </mxCell>
        <mxCell id="VA1_hBFzycBNLu6Wee6J-51" value="" style="edgeStyle=orthogonalEdgeStyle;rounded=0;orthogonalLoop=1;jettySize=auto;html=1;" edge="1" parent="2" source="8" target="VA1_hBFzycBNLu6Wee6J-50">
          <mxGeometry relative="1" as="geometry" />
        </mxCell>
        <mxCell id="8" value="查询卡券" style="" parent="2" vertex="1">
          <mxGeometry x="85" y="220" width="110" height="50" as="geometry" />
        </mxCell>
        <mxCell id="9" value="" style="endArrow=open;strokeColor=#000000;endFill=1;rounded=0" parent="2" source="7" target="8" edge="1">
          <mxGeometry relative="1" as="geometry" />
        </mxCell>
        <mxCell id="VA1_hBFzycBNLu6Wee6J-50" value="卡券消费" style="" vertex="1" parent="2">
          <mxGeometry x="85" y="452" width="110" height="50" as="geometry" />
        </mxCell>
        <mxCell id="VA1_hBFzycBNLu6Wee6J-66" value="卡券作废" style="" vertex="1" parent="2">
          <mxGeometry x="155.5" y="342" width="110" height="50" as="geometry" />
        </mxCell>
        <mxCell id="VA1_hBFzycBNLu6Wee6J-67" value="" style="ellipse;shape=endState;fillColor=#000000;strokeColor=#ff0000" vertex="1" parent="2">
          <mxGeometry x="125" y="52" width="30" height="30" as="geometry" />
        </mxCell>
        <mxCell id="VA1_hBFzycBNLu6Wee6J-70" value="" style="endArrow=classic;html=1;rounded=0;exitX=1;exitY=0.5;exitDx=0;exitDy=0;entryX=0.75;entryY=0;entryDx=0;entryDy=0;strokeColor=#FF0000;" edge="1" parent="2" source="VA1_hBFzycBNLu6Wee6J-67" target="VA1_hBFzycBNLu6Wee6J-66">
          <mxGeometry width="50" height="50" relative="1" as="geometry">
            <mxPoint x="395.5" y="282" as="sourcePoint" />
            <mxPoint x="445.5" y="232" as="targetPoint" />
            <Array as="points">
              <mxPoint x="238.5" y="67" />
            </Array>
          </mxGeometry>
        </mxCell>
        <mxCell id="3" value="卡券中心&#xa;ticket-center" style="swimlane;whiteSpace=wrap;fillColor=#dae8fc;strokeColor=#6c8ebf;startSize=32;" parent="1" vertex="1">
          <mxGeometry x="444.5" y="128" width="280" height="570" as="geometry" />
        </mxCell>
        <mxCell id="VA1_hBFzycBNLu6Wee6J-58" value="" style="edgeStyle=orthogonalEdgeStyle;rounded=0;orthogonalLoop=1;jettySize=auto;html=1;" edge="1" parent="3" source="2-10aInCtrXGnhkzQsI8-54" target="VA1_hBFzycBNLu6Wee6J-57">
          <mxGeometry relative="1" as="geometry" />
        </mxCell>
        <mxCell id="2-10aInCtrXGnhkzQsI8-54" value="卡券池" style="shape=document;whiteSpace=wrap;html=1;boundedLbl=1;" parent="3" vertex="1">
          <mxGeometry x="84.5" y="211" width="110.5" height="68" as="geometry" />
        </mxCell>
        <mxCell id="VA1_hBFzycBNLu6Wee6J-56" value="" style="edgeStyle=orthogonalEdgeStyle;rounded=0;orthogonalLoop=1;jettySize=auto;html=1;" edge="1" parent="3" source="VA1_hBFzycBNLu6Wee6J-54" target="2-10aInCtrXGnhkzQsI8-54">
          <mxGeometry relative="1" as="geometry" />
        </mxCell>
        <mxCell id="VA1_hBFzycBNLu6Wee6J-54" value="添加卡券接口" style="" vertex="1" parent="3">
          <mxGeometry x="85.5" y="112" width="110" height="50" as="geometry" />
        </mxCell>
        <mxCell id="VA1_hBFzycBNLu6Wee6J-57" value="卡券包消费接口" style="" vertex="1" parent="3">
          <mxGeometry x="85" y="452" width="110" height="50" as="geometry" />
        </mxCell>
        <mxCell id="VA1_hBFzycBNLu6Wee6J-59" value="卡券作废（无锁）" style="" vertex="1" parent="3">
          <mxGeometry x="15.5" y="342" width="110" height="50" as="geometry" />
        </mxCell>
        <mxCell id="VA1_hBFzycBNLu6Wee6J-60" value="卡券作废（有锁）" style="" vertex="1" parent="3">
          <mxGeometry x="155.5" y="342" width="110" height="50" as="geometry" />
        </mxCell>
        <mxCell id="VA1_hBFzycBNLu6Wee6J-61" value="" style="endArrow=classic;html=1;rounded=0;exitX=0;exitY=0.75;exitDx=0;exitDy=0;entryX=0.25;entryY=0;entryDx=0;entryDy=0;" edge="1" parent="3" source="2-10aInCtrXGnhkzQsI8-54" target="VA1_hBFzycBNLu6Wee6J-59">
          <mxGeometry width="50" height="50" relative="1" as="geometry">
            <mxPoint x="115.5" y="282" as="sourcePoint" />
            <mxPoint x="165.5" y="232" as="targetPoint" />
            <Array as="points">
              <mxPoint x="43.5" y="262" />
            </Array>
          </mxGeometry>
        </mxCell>
        <mxCell id="VA1_hBFzycBNLu6Wee6J-63" value="" style="endArrow=classic;html=1;rounded=0;exitX=1;exitY=0.75;exitDx=0;exitDy=0;entryX=0.75;entryY=0;entryDx=0;entryDy=0;" edge="1" parent="3" source="2-10aInCtrXGnhkzQsI8-54" target="VA1_hBFzycBNLu6Wee6J-60">
          <mxGeometry width="50" height="50" relative="1" as="geometry">
            <mxPoint x="277.5" y="262" as="sourcePoint" />
            <mxPoint x="245.5" y="432" as="targetPoint" />
            <Array as="points">
              <mxPoint x="238.5" y="262" />
            </Array>
          </mxGeometry>
        </mxCell>
        <mxCell id="4" value="jeecg后台管理" style="swimlane;whiteSpace=wrap;fillColor=#dae8fc;strokeColor=#6c8ebf;startSize=32;" parent="1" vertex="1">
          <mxGeometry x="724.5" y="128" width="280" height="570" as="geometry">
            <mxRectangle x="724.5" y="128" width="120" height="32" as="alternateBounds" />
          </mxGeometry>
        </mxCell>
        <mxCell id="33" value="导入卡券包" style="" parent="4" vertex="1">
          <mxGeometry x="85" y="112" width="110" height="50" as="geometry" />
        </mxCell>
        <mxCell id="2-10aInCtrXGnhkzQsI8-50" value="" style="edgeStyle=orthogonalEdgeStyle;rounded=0;orthogonalLoop=1;jettySize=auto;html=1;" parent="4" source="38" target="33" edge="1">
          <mxGeometry relative="1" as="geometry" />
        </mxCell>
        <mxCell id="38" value="" style="ellipse;shape=endState;fillColor=#000000;strokeColor=#ff0000" parent="4" vertex="1">
          <mxGeometry x="125" y="52" width="30" height="30" as="geometry" />
        </mxCell>
        <mxCell id="VA1_hBFzycBNLu6Wee6J-74" value="" style="swimlane;startSize=0;" vertex="1" parent="4">
          <mxGeometry x="40" y="210" width="200" height="200" as="geometry">
            <mxRectangle x="40" y="222" width="50" height="40" as="alternateBounds" />
          </mxGeometry>
        </mxCell>
        <mxCell id="VA1_hBFzycBNLu6Wee6J-75" value="查询卡券列表" style="" vertex="1" parent="VA1_hBFzycBNLu6Wee6J-74">
          <mxGeometry x="45" y="38" width="110" height="50" as="geometry" />
        </mxCell>
        <mxCell id="VA1_hBFzycBNLu6Wee6J-76" value="查询卡券明细" style="" vertex="1" parent="VA1_hBFzycBNLu6Wee6J-74">
          <mxGeometry x="45" y="120" width="110" height="50" as="geometry" />
        </mxCell>
        <mxCell id="2-10aInCtrXGnhkzQsI8-52" value="" style="edgeStyle=orthogonalEdgeStyle;rounded=0;orthogonalLoop=1;jettySize=auto;html=1;entryX=0.5;entryY=0;entryDx=0;entryDy=0;" parent="4" source="33" target="VA1_hBFzycBNLu6Wee6J-75" edge="1">
          <mxGeometry relative="1" as="geometry">
            <mxPoint x="140" y="235" as="targetPoint" />
          </mxGeometry>
        </mxCell>
        <mxCell id="VA1_hBFzycBNLu6Wee6J-78" value="卡券作废" style="" vertex="1" parent="4">
          <mxGeometry x="85" y="452" width="110" height="50" as="geometry" />
        </mxCell>
        <mxCell id="VA1_hBFzycBNLu6Wee6J-80" value="" style="endArrow=classic;html=1;rounded=0;exitX=1;exitY=0.5;exitDx=0;exitDy=0;entryX=1;entryY=0.5;entryDx=0;entryDy=0;strokeColor=#FF0000;" edge="1" parent="4" source="38" target="VA1_hBFzycBNLu6Wee6J-78">
          <mxGeometry width="50" height="50" relative="1" as="geometry">
            <mxPoint x="165.5" y="92" as="sourcePoint" />
            <mxPoint x="215.5" y="42" as="targetPoint" />
            <Array as="points">
              <mxPoint x="265.5" y="67" />
              <mxPoint x="265.5" y="477" />
            </Array>
          </mxGeometry>
        </mxCell>
        <mxCell id="6" value="" style="edgeStyle=elbowEdgeStyle;elbow=horizontal;verticalAlign=bottom;endArrow=open;endSize=8;strokeColor=#FF0000;endFill=1;rounded=0" parent="1" source="2-10aInCtrXGnhkzQsI8-41" target="7" edge="1">
          <mxGeometry x="264.5" y="168" as="geometry">
            <mxPoint x="279.5" y="238" as="targetPoint" />
          </mxGeometry>
        </mxCell>
        <mxCell id="2-10aInCtrXGnhkzQsI8-41" value="消费者" style="shape=umlActor;verticalLabelPosition=bottom;verticalAlign=top;html=1;outlineConnect=0;" parent="1" vertex="1">
          <mxGeometry x="60" y="233" width="30" height="60" as="geometry" />
        </mxCell>
        <mxCell id="VA1_hBFzycBNLu6Wee6J-45" value="" style="endArrow=classic;html=1;rounded=0;exitX=1;exitY=0.5;exitDx=0;exitDy=0;entryX=0;entryY=0.5;entryDx=0;entryDy=0;" edge="1" parent="1" source="8" target="2-10aInCtrXGnhkzQsI8-54">
          <mxGeometry width="50" height="50" relative="1" as="geometry">
            <mxPoint x="560" y="410" as="sourcePoint" />
            <mxPoint x="610" y="360" as="targetPoint" />
          </mxGeometry>
        </mxCell>
        <mxCell id="VA1_hBFzycBNLu6Wee6J-55" value="" style="endArrow=classic;html=1;rounded=0;exitX=0;exitY=0.5;exitDx=0;exitDy=0;entryX=1;entryY=0.5;entryDx=0;entryDy=0;" edge="1" parent="1" source="33" target="VA1_hBFzycBNLu6Wee6J-54">
          <mxGeometry width="50" height="50" relative="1" as="geometry">
            <mxPoint x="560" y="410" as="sourcePoint" />
            <mxPoint x="610" y="360" as="targetPoint" />
          </mxGeometry>
        </mxCell>
        <mxCell id="VA1_hBFzycBNLu6Wee6J-71" value="" style="edgeStyle=orthogonalEdgeStyle;rounded=0;orthogonalLoop=1;jettySize=auto;html=1;" edge="1" parent="1" source="VA1_hBFzycBNLu6Wee6J-66" target="VA1_hBFzycBNLu6Wee6J-59">
          <mxGeometry relative="1" as="geometry" />
        </mxCell>
        <mxCell id="VA1_hBFzycBNLu6Wee6J-72" value="" style="endArrow=classic;html=1;rounded=0;exitX=1;exitY=0.5;exitDx=0;exitDy=0;entryX=0;entryY=0.5;entryDx=0;entryDy=0;" edge="1" parent="1" source="VA1_hBFzycBNLu6Wee6J-50" target="VA1_hBFzycBNLu6Wee6J-57">
          <mxGeometry width="50" height="50" relative="1" as="geometry">
            <mxPoint x="560" y="410" as="sourcePoint" />
            <mxPoint x="610" y="360" as="targetPoint" />
          </mxGeometry>
        </mxCell>
        <mxCell id="VA1_hBFzycBNLu6Wee6J-77" value="" style="endArrow=classic;html=1;rounded=0;exitX=0;exitY=0.5;exitDx=0;exitDy=0;entryX=1;entryY=0.5;entryDx=0;entryDy=0;" edge="1" parent="1" source="VA1_hBFzycBNLu6Wee6J-74" target="2-10aInCtrXGnhkzQsI8-54">
          <mxGeometry width="50" height="50" relative="1" as="geometry">
            <mxPoint x="560" y="410" as="sourcePoint" />
            <mxPoint x="680" y="350" as="targetPoint" />
            <Array as="points">
              <mxPoint x="710" y="438" />
              <mxPoint x="710" y="373" />
            </Array>
          </mxGeometry>
        </mxCell>
        <mxCell id="VA1_hBFzycBNLu6Wee6J-79" value="" style="endArrow=classic;html=1;rounded=0;exitX=0;exitY=0.5;exitDx=0;exitDy=0;entryX=0.564;entryY=1;entryDx=0;entryDy=0;entryPerimeter=0;" edge="1" parent="1" source="VA1_hBFzycBNLu6Wee6J-78" target="VA1_hBFzycBNLu6Wee6J-60">
          <mxGeometry width="50" height="50" relative="1" as="geometry">
            <mxPoint x="560" y="410" as="sourcePoint" />
            <mxPoint x="610" y="360" as="targetPoint" />
            <Array as="points">
              <mxPoint x="662" y="605" />
            </Array>
          </mxGeometry>
        </mxCell>
      </root>
    </mxGraphModel>
  </diagram>
</mxfile>
